<svg width="1325" height="1478" viewBox="0 0 1325 1478" fill="none" xmlns="http://www.w3.org/2000/svg">
<path d="M1 147.5L96.5 310.5L83.5 320.5L94.5 332.5L83.5 341.5L72 348.5L63.5 361.5V379.5L72 415L63.5 432L53.5 443L63.5 486L83.5 493V507.5L72 516.5H63.5V535L47.5 543L37.5 568.5L29 577.5V596.5L37.5 612L47.5 628.5L29 654.5L47.5 680L94.5 709L82 724.5H69L58 732L74.5 738.5L69 762L66.5 788L47.5 792.5L29 830L3.5 850L20 871V882.5L29 899L47.5 940H69L58 953.5L74.5 997L81.5 1046.5L102 1067.5L131 1087L116.5 1118L124.5 1146.5L121 1156.5L102 1168.5L109.5 1176.5L102 1208.5L131 1231L124.5 1252L131 1266H142.5L150.5 1273.5L167.5 1321L163.5 1339L178.5 1348L176 1380.5L183.5 1382.5L198.5 1409V1458L203.5 1471L215 1477H236L275.5 1471L277.5 1466.5L291 1455.5L296.5 1441L304.5 1429.5H316.5V1416.5L333 1396.5H363.5L374 1352.5L439 1396.5L542.5 1407L570 1471.5L595.5 1423.5L614.5 1385.5H705.5L734.5 1396.5L742 1407L755 1396.5L772.5 1337.5L791.5 1279.5V1248V1217L859.5 1121.5L957.5 1113.5L1034 1094.5L1128.5 1101.5L1178 1121.5L1233 1153.5V1202L1273.5 1177L1242.5 1141.5L1291 1066.5L1281.5 1054.5L1298 1012L1308.5 988.5L1324 978L1308.5 967.5L1281.5 889.5H1257L1222.5 863.5L1216.5 799L1233 777.5V753L1034 743.5V701L1027 663.5L1010.5 635L1001 614L1020 606.5L1027 578.5L1020 551.5L1001 499.5L1010.5 486.5L1001 467.5L955 440.5L922 431H890.5H857L842.5 416.5L820.5 397.5L816.5 382.5L791 386L788 378H774L757.5 367.5H754L737.5 359.5L714.5 336.5L705.5 330.5L699.5 336.5H687L665 319L652.5 310L637.5 306.5L628.5 310L622 315L617 319L569 306.5L561.5 295.5L556.5 282.5H551.5L535 271.5L520 259.5L516 264L502 254L493 235L487 222.5L478.5 227.5L475.5 209L467 194L458 174V157L467 139L458 117.5L450 96.5L453.5 84L458 71L464 59L458 1.5L437.5 8.5L431 16.5L413.5 8.5H399.5H383.5L356 16.5L332 21.5L309.5 32L283.5 49.5L264.5 62.5L250 68L232 80L219.5 92.5L208 96.5L198.5 112.5L172.5 105.5L161.5 112.5L153.5 121.5L139 139L128 152.5L114.5 158L96.5 162.5H80L69 158L58 152.5L43.5 147.5H30H17.5H1Z" stroke="black"/>
</svg>
